<?xml version="1.0" standalone="no"?><!DOCTYPE svg PUBLIC "-//W3C//DTD SVG 1.1//EN" "http://www.w3.org/Graphics/SVG/1.1/DTD/svg11.dtd"><svg t="1697683916582" class="icon" viewBox="0 0 1024 1024" version="1.1" xmlns="http://www.w3.org/2000/svg" p-id="18794" xmlns:xlink="http://www.w3.org/1999/xlink" width="200" height="200"><path d="M972.8 0H51.2a51.2 51.2 0 0 0-51.2 51.2v716.8a51.2 51.2 0 0 0 51.2 51.2h921.6a51.2 51.2 0 0 0 51.2-51.2V51.2a51.2 51.2 0 0 0-51.2-51.2z m-51.2 716.8H102.4V102.4h819.2zM972.8 921.6H51.2a51.2 51.2 0 0 0 0 102.4h921.6a51.2 51.2 0 0 0 0-102.4z" fill="#FFFFFF" p-id="18795" data-spm-anchor-id="a313x.search_index.0.i5.4b973a817OhfuX" class="selected"></path><path d="M256 512h137.216l29.184 107.008H512L375.808 200.704H278.016l-133.632 417.792h84.48z m30.208-110.592c12.288-43.52 24.576-90.624 35.328-136.192h2.56c11.776 45.056 23.04 93.184 35.84 136.192l12.288 45.568H276.48zM879.616 409.6c0-140.8-78.848-204.8-204.8-204.8h-115.712v417.28h118.784c122.88-3.584 201.728-73.728 201.728-212.48z m-237.056 142.848V267.776h26.112c77.824 0 125.952 38.4 125.952 140.288s-48.64 142.848-125.952 142.848z" fill="#FFFFFF" p-id="18796" data-spm-anchor-id="a313x.search_index.0.i6.4b973a817OhfuX" class="selected"></path></svg>